<svg width="23.000000" height="23.000000" viewBox="0 0 23 23" fill="none" xmlns="http://www.w3.org/2000/svg" xmlns:xlink="http://www.w3.org/1999/xlink">
	<path id="Vector" d="M11.5 0C5.1521 0 0 5.15198 0 11.5C0 17.848 5.1521 23 11.5 23C17.8364 23 23 17.848 23 11.5C23 5.15198 17.8364 0 11.5 0ZM19.0957 5.30151C20.5115 7.02545 21.2952 9.18164 21.3167 11.4123C20.9917 11.3505 17.7488 10.6893 14.4814 11.1004C14.4067 10.9394 14.3433 10.764 14.2686 10.5901C14.0688 10.1157 13.8445 9.62982 13.6204 9.16693C17.2371 7.69635 18.8845 5.57605 19.0972 5.30005L19.0957 5.30151ZM11.5 1.69623C13.9941 1.69623 16.2769 2.63062 18.012 4.16589C17.8364 4.41602 16.3516 6.39832 12.8599 7.70789C11.2498 4.75238 9.46729 2.3316 9.19287 1.95789C9.94897 1.78131 10.7234 1.69348 11.5 1.69623ZM7.32129 2.61914C8.63745 4.44336 9.85352 6.33795 10.9639 8.29437C6.37378 9.51624 2.32007 9.49182 1.88306 9.49182C2.19922 8.00507 2.85449 6.61139 3.79761 5.41949C4.74097 4.2276 5.94678 3.26971 7.32129 2.62054L7.32129 2.61914ZM1.67188 11.5144L1.67188 11.2125C2.09595 11.2269 6.86108 11.2887 11.7632 9.81671C12.0491 10.3644 12.3108 10.9265 12.5608 11.4871L12.1729 11.5992C7.10986 13.2336 4.41602 17.6985 4.19043 18.0737C2.5686 16.2734 1.67139 13.936 1.67188 11.5129L1.67188 11.5144ZM11.5 21.3282C9.31714 21.3316 7.19629 20.6027 5.47681 19.2582C5.64941 18.8959 7.646 15.0549 13.1833 13.1215C13.2092 13.1086 13.2207 13.1086 13.2466 13.097C14.1802 15.5068 14.8813 18.0002 15.3411 20.5433C14.1277 21.0646 12.8206 21.3318 11.5 21.3282ZM16.9768 19.6449C16.8762 19.0454 16.3516 16.1776 15.0679 12.6471C18.1484 12.1613 20.8423 12.959 21.1787 13.0712C20.9692 14.3975 20.4875 15.6661 19.7642 16.7974C19.041 17.9287 18.0913 18.8982 16.9753 19.6449L16.9768 19.6449Z" fill="#ABB2BF" fill-opacity="1.000000" fill-rule="evenodd"/>
</svg>
