<svg width="14.000000" height="20" viewBox="0 0 14 20" fill="none" xmlns="http://www.w3.org/2000/svg" xmlns:xlink="http://www.w3.org/1999/xlink">
	<desc>
			Created with Pixso.
	</desc>
	<defs/>
	<path id="Vector" d="M7 10C7 9.11597 7.36865 8.26813 8.02515 7.64301C8.6814 7.01788 9.57178 6.66669 10.5 6.66669C11.4282 6.66669 12.3186 7.01788 12.9749 7.64301C13.6313 8.26813 14 9.11597 14 10C14 10.884 13.6313 11.7319 12.9749 12.357C12.3186 12.9821 11.4282 13.3333 10.5 13.3333C9.57178 13.3333 8.6814 12.9821 8.02515 12.357C7.36865 11.7319 7 10.884 7 10ZM0 16.6667C0 15.7826 0.368652 14.9348 1.02515 14.3096C1.6814 13.6845 2.57178 13.3333 3.5 13.3333L7 13.3333L7 16.6667C7 17.5507 6.63135 18.3986 5.97485 19.0237C5.3186 19.6488 4.42822 20 3.5 20C2.57178 20 1.6814 19.6488 1.02515 19.0237C0.368652 18.3986 0 17.5507 0 16.6667ZM7 0L7 6.66669L10.5 6.66669C11.4282 6.66669 12.3186 6.31549 12.9749 5.69037C13.6313 5.06525 14 4.21741 14 3.33331C14 2.44928 13.6313 1.60144 12.9749 0.976318C12.3186 0.351196 11.4282 0 10.5 0L7 0ZM0 3.33331C0 4.21741 0.368652 5.06525 1.02515 5.69037C1.6814 6.31549 2.57178 6.66669 3.5 6.66669L7 6.66669L7 0L3.5 0C2.57178 0 1.6814 0.351196 1.02515 0.976318C0.368652 1.60144 0 2.44928 0 3.33331ZM0 10C0 10.884 0.368652 11.7319 1.02515 12.357C1.6814 12.9821 2.57178 13.3333 3.5 13.3333L7 13.3333L7 6.66669L3.5 6.66669C2.57178 6.66669 1.6814 7.01788 1.02515 7.64301C0.368652 8.26813 0 9.11597 0 10Z" fill="#ABB2BF" fill-opacity="1.000000" fill-rule="nonzero"/>
</svg>
