<svg width="21.000000" height="20.000000" viewBox="0 0 21 20" fill="none" xmlns="http://www.w3.org/2000/svg" xmlns:xlink="http://www.w3.org/1999/xlink">
	<desc>
			Created with Pixso.
	</desc>
	<defs/>
	<path id="Vector" d="M10.5 0C4.69873 0 0 4.5882 0 10.2529C0 14.7899 3.00562 18.6219 7.17944 19.9804C7.70435 20.0701 7.90137 19.7625 7.90137 19.4934C7.90137 19.2499 7.88818 18.4425 7.88818 17.5838C5.25 18.058 4.56738 16.9558 4.35742 16.3791C4.23926 16.0843 3.72754 15.1743 3.28125 14.9308C2.91382 14.7386 2.38867 14.2644 3.26807 14.2516C4.09497 14.2388 4.68555 14.9949 4.88257 15.3025C5.82739 16.8533 7.33691 16.4175 7.94067 16.1484C8.03247 15.4819 8.30811 15.0334 8.61011 14.777C6.27368 14.5208 3.83252 13.6364 3.83252 9.71466C3.83252 8.59967 4.23926 7.67688 4.90869 6.95917C4.80371 6.70288 4.43628 5.65192 5.01367 4.24213C5.01367 4.24213 5.89307 3.97302 7.90137 5.29309C8.74121 5.06238 9.63379 4.94702 10.5264 4.94702C11.4187 4.94702 12.3113 5.06238 13.1514 5.29309C15.1594 3.96021 16.0388 4.24213 16.0388 4.24213C16.6162 5.65192 16.2488 6.70288 16.1438 6.95917C16.8132 7.67688 17.22 8.58685 17.22 9.71466C17.22 13.6492 14.7656 14.5208 12.4294 14.777C12.8101 15.0975 13.1382 15.7126 13.1382 16.6738C13.1382 18.0452 13.125 19.1473 13.125 19.4934C13.125 19.7625 13.3218 20.0829 13.8469 19.9804C15.9314 19.2935 17.7429 17.9854 19.0261 16.2404C20.3093 14.4953 20.9995 12.4012 21 10.2529C21 4.5882 16.3013 0 10.5 0Z" fill="#ABB2BF" fill-opacity="1.000000" fill-rule="nonzero"/>
</svg>
