<svg width="155.000000" height="155.000000" viewBox="0 0 155 155" fill="none" xmlns="http://www.w3.org/2000/svg" xmlns:xlink="http://www.w3.org/1999/xlink">
	<desc>
			Created with Pixso.
	</desc>
	<defs/>
	<rect id="Logo" width="155.000000" height="155.000000" fill="#FFFFFF" fill-opacity="0"/>
	<mask id="mask_6_2301" fill="white">
		<path id="Union" d="M0 38.75L0 37.75L-1 37.75L-1 38.75L0 38.75ZM77.5 38.75L78.5 38.75L78.5 37.75L77.5 37.75L77.5 38.75ZM77.5 77.5L77.5 78.5L78.5 78.5L78.5 77.5L77.5 77.5ZM38.75 77.5L38.75 76.5L37.75 76.5L37.75 77.5L38.75 77.5ZM38.75 116.25L37.75 116.25L37.75 117.25L38.75 117.25L38.75 116.25ZM77.5 116.25L78.5 116.25L78.5 115.25L77.5 115.25L77.5 116.25ZM77.5 155L77.5 156L78.5 156L78.5 155L77.5 155ZM0 155L-1 155L-1 156L0 156L0 155ZM38.75 37.75L0 37.75L0 39.75L38.75 39.75L38.75 37.75ZM77.5 37.75L38.75 37.75L38.75 39.75L77.5 39.75L77.5 37.75ZM78.5 77.5L78.5 38.75L76.5 38.75L76.5 77.5L78.5 77.5ZM38.75 78.5L77.5 78.5L77.5 76.5L38.75 76.5L38.75 78.5ZM39.75 116.25L39.75 77.5L37.75 77.5L37.75 116.25L39.75 116.25ZM38.75 117.25L77.5 117.25L77.5 115.25L38.75 115.25L38.75 117.25ZM76.5 116.25L76.5 155L78.5 155L78.5 116.25L76.5 116.25ZM77.5 154L38.75 154L38.75 156L77.5 156L77.5 154ZM0 156L38.75 156L38.75 154L0 154L0 156ZM-1 116.25L-1 155L1 155L1 116.25L-1 116.25ZM-1 77.5L-1 116.25L1 116.25L1 77.5L-1 77.5ZM-1 38.75L-1 77.5L1 77.5L1 38.75L-1 38.75Z" fill="" fill-opacity="1.000000" fill-rule="nonzero"/>
	</mask>
	<path id="Union" d="" fill="#C778DD" fill-opacity="1.000000" fill-rule="nonzero"/>
	<mask id="mask_6_2307" fill="white">
		<path id="Union" d="M77.5 0L77.5 -1L76.5 -1L76.5 0L77.5 0ZM155 0L156 0L156 -1L155 -1L155 0ZM155 116.25L155 117.25L156 117.25L156 116.25L155 116.25ZM77.5 116.25L76.5 116.25L76.5 117.25L77.5 117.25L77.5 116.25ZM77.5 77.5L77.5 76.5L76.5 76.5L76.5 77.5L77.5 77.5ZM116.25 77.5L116.25 78.5L117.25 78.5L117.25 77.5L116.25 77.5ZM116.25 38.75L117.25 38.75L117.25 37.75L116.25 37.75L116.25 38.75ZM77.5 38.75L76.5 38.75L76.5 39.75L77.5 39.75L77.5 38.75ZM116.25 -1L77.5 -1L77.5 1L116.25 1L116.25 -1ZM155 -1L116.25 -1L116.25 1L155 1L155 -1ZM156 38.75L156 0L154 0L154 38.75L156 38.75ZM156 77.5L156 38.75L154 38.75L154 77.5L156 77.5ZM156 116.25L156 77.5L154 77.5L154 116.25L156 116.25ZM116.25 117.25L155 117.25L155 115.25L116.25 115.25L116.25 117.25ZM116.25 115.25L77.5 115.25L77.5 117.25L116.25 117.25L116.25 115.25ZM78.5 116.25L78.5 77.5L76.5 77.5L76.5 116.25L78.5 116.25ZM77.5 78.5L116.25 78.5L116.25 76.5L77.5 76.5L77.5 78.5ZM115.25 38.75L115.25 77.5L117.25 77.5L117.25 38.75L115.25 38.75ZM77.5 39.75L116.25 39.75L116.25 37.75L77.5 37.75L77.5 39.75ZM76.5 0L76.5 38.75L78.5 38.75L78.5 0L76.5 0Z" fill="" fill-opacity="1.000000" fill-rule="nonzero"/>
	</mask>
	<path id="Union" d="" fill="#C778DD" fill-opacity="1.000000" fill-rule="nonzero"/>
</svg>
