<svg width="25.472046" height="20.703995" viewBox="0 0 25.472 20.704" fill="none" xmlns="http://www.w3.org/2000/svg" xmlns:xlink="http://www.w3.org/1999/xlink">
	<desc>
			Created with Pixso.
	</desc>
	<defs/>
	<path id="“" d="M10.5601 15.616C10.5601 17.0453 10.0374 18.2507 8.99194 19.232C7.96802 20.2133 6.71997 20.704 5.24805 20.704C3.73328 20.704 2.47461 20.2133 1.47205 19.232C0.490723 18.2507 0 17.0453 0 15.616C0 14.9333 0.0959473 14.208 0.287964 13.44C0.47998 12.672 0.864014 11.68 1.43994 10.464L6.40002 0L11.2 0L8.54395 11.584C9.14136 12.0107 9.62134 12.576 9.98401 13.28C10.368 13.9627 10.5601 14.7413 10.5601 15.616ZM24.8 15.616C24.8 17.0453 24.2773 18.2507 23.2321 19.232C22.1866 20.2133 20.9387 20.704 19.488 20.704C18.016 20.704 16.7679 20.2133 15.744 19.232C14.7413 18.2507 14.24 17.0453 14.24 15.616C14.24 14.9333 14.3361 14.208 14.528 13.44C14.72 12.672 15.1146 11.68 15.712 10.464L20.704 0L25.472 0L22.7841 11.584C23.4027 12.0107 23.8933 12.576 24.256 13.28C24.6187 13.9627 24.8 14.7413 24.8 15.616Z" fill="#ABB2BF" fill-opacity="1.000000" fill-rule="nonzero"/>
</svg>
