<svg width="23" height="23" viewBox="0 0 23 23" fill="currentColor" xmlns="http://www.w3.org/2000/svg">

	<!--  width="23.000000" height="23.000000" viewBox="0 0 23 23" -->
	<path
		id="dribble"
		d="M11.5 0C5.1521 0 0 5.15198 0 11.5C0 17.848 5.1521 23 11.5 23C17.8364 23 23 17.848 23 11.5C23 5.15198 17.8364 0 11.5 0ZM19.0957 5.30151C20.5115 7.02545 21.2952 9.18164 21.3167 11.4123C20.9917 11.3505 17.7488 10.6893 14.4814 11.1004C14.4067 10.9394 14.3433 10.764 14.2686 10.5901C14.0688 10.1157 13.8445 9.62982 13.6204 9.16693C17.2371 7.69635 18.8845 5.57605 19.0972 5.30005L19.0957 5.30151ZM11.5 1.69623C13.9941 1.69623 16.2769 2.63062 18.012 4.16589C17.8364 4.41602 16.3516 6.39832 12.8599 7.70789C11.2498 4.75238 9.46729 2.3316 9.19287 1.95789C9.94897 1.78131 10.7234 1.69348 11.5 1.69623ZM7.32129 2.61914C8.63745 4.44336 9.85352 6.33795 10.9639 8.29437C6.37378 9.51624 2.32007 9.49182 1.88306 9.49182C2.19922 8.00507 2.85449 6.61139 3.79761 5.41949C4.74097 4.2276 5.94678 3.26971 7.32129 2.62054L7.32129 2.61914ZM1.67188 11.5144L1.67188 11.2125C2.09595 11.2269 6.86108 11.2887 11.7632 9.81671C12.0491 10.3644 12.3108 10.9265 12.5608 11.4871L12.1729 11.5992C7.10986 13.2336 4.41602 17.6985 4.19043 18.0737C2.5686 16.2734 1.67139 13.936 1.67188 11.5129L1.67188 11.5144ZM11.5 21.3282C9.31714 21.3316 7.19629 20.6027 5.47681 19.2582C5.64941 18.8959 7.646 15.0549 13.1833 13.1215C13.2092 13.1086 13.2207 13.1086 13.2466 13.097C14.1802 15.5068 14.8813 18.0002 15.3411 20.5433C14.1277 21.0646 12.8206 21.3318 11.5 21.3282ZM16.9768 19.6449C16.8762 19.0454 16.3516 16.1776 15.0679 12.6471C18.1484 12.1613 20.8423 12.959 21.1787 13.0712C20.9692 14.3975 20.4875 15.6661 19.7642 16.7974C19.041 17.9287 18.0913 18.8982 16.9753 19.6449L16.9768 19.6449Z"
		fill="currentColor"
		fill-opacity="1.000000"
		fill-rule="evenodd"
	/>

	<!-- width="21.000000" height="20.000000" viewBox="0 0 21 20" -->
	<path id="github" d="M10.5 0C4.69873 0 0 4.5882 0 10.2529C0 14.7899 3.00562 18.6219 7.17944 19.9804C7.70435 20.0701 7.90137 19.7625 7.90137 19.4934C7.90137 19.2499 7.88818 18.4425 7.88818 17.5838C5.25 18.058 4.56738 16.9558 4.35742 16.3791C4.23926 16.0843 3.72754 15.1743 3.28125 14.9308C2.91382 14.7386 2.38867 14.2644 3.26807 14.2516C4.09497 14.2388 4.68555 14.9949 4.88257 15.3025C5.82739 16.8533 7.33691 16.4175 7.94067 16.1484C8.03247 15.4819 8.30811 15.0334 8.61011 14.777C6.27368 14.5208 3.83252 13.6364 3.83252 9.71466C3.83252 8.59967 4.23926 7.67688 4.90869 6.95917C4.80371 6.70288 4.43628 5.65192 5.01367 4.24213C5.01367 4.24213 5.89307 3.97302 7.90137 5.29309C8.74121 5.06238 9.63379 4.94702 10.5264 4.94702C11.4187 4.94702 12.3113 5.06238 13.1514 5.29309C15.1594 3.96021 16.0388 4.24213 16.0388 4.24213C16.6162 5.65192 16.2488 6.70288 16.1438 6.95917C16.8132 7.67688 17.22 8.58685 17.22 9.71466C17.22 13.6492 14.7656 14.5208 12.4294 14.777C12.8101 15.0975 13.1382 15.7126 13.1382 16.6738C13.1382 18.0452 13.125 19.1473 13.125 19.4934C13.125 19.7625 13.3218 20.0829 13.8469 19.9804C15.9314 19.2935 17.7429 17.9854 19.0261 16.2404C20.3093 14.4953 20.9995 12.4012 21 10.2529C21 4.5882 16.3013 0 10.5 0Z" fill="currentColor" fill-opacity="1.000000" fill-rule="nonzero"/>

	<!-- width="14.000000" height="20.000000" viewBox="0 0 14 20" -->
	<path id="figma" d="M7 10C7 9.11597 7.36865 8.26813 8.02515 7.64301C8.6814 7.01788 9.57178 6.66669 10.5 6.66669C11.4282 6.66669 12.3186 7.01788 12.9749 7.64301C13.6313 8.26813 14 9.11597 14 10C14 10.884 13.6313 11.7319 12.9749 12.357C12.3186 12.9821 11.4282 13.3333 10.5 13.3333C9.57178 13.3333 8.6814 12.9821 8.02515 12.357C7.36865 11.7319 7 10.884 7 10ZM0 16.6667C0 15.7826 0.368652 14.9348 1.02515 14.3096C1.6814 13.6845 2.57178 13.3333 3.5 13.3333L7 13.3333L7 16.6667C7 17.5507 6.63135 18.3986 5.97485 19.0237C5.3186 19.6488 4.42822 20 3.5 20C2.57178 20 1.6814 19.6488 1.02515 19.0237C0.368652 18.3986 0 17.5507 0 16.6667ZM7 0L7 6.66669L10.5 6.66669C11.4282 6.66669 12.3186 6.31549 12.9749 5.69037C13.6313 5.06525 14 4.21741 14 3.33331C14 2.44928 13.6313 1.60144 12.9749 0.976318C12.3186 0.351196 11.4282 0 10.5 0L7 0ZM0 3.33331C0 4.21741 0.368652 5.06525 1.02515 5.69037C1.6814 6.31549 2.57178 6.66669 3.5 6.66669L7 6.66669L7 0L3.5 0C2.57178 0 1.6814 0.351196 1.02515 0.976318C0.368652 1.60144 0 2.44928 0 3.33331ZM0 10C0 10.884 0.368652 11.7319 1.02515 12.357C1.6814 12.9821 2.57178 13.3333 3.5 13.3333L7 13.3333L7 6.66669L3.5 6.66669C2.57178 6.66669 1.6814 7.01788 1.02515 7.64301C0.368652 8.26813 0 9.11597 0 10Z" fill="currentColor" fill-opacity="1.000000" fill-rule="nonzero"/>


	<!--  width="155.000000" height="155.000000" viewBox="0 0 155 155" -  Большой логотип -->
	<!--  width="114.000000" height="114.000000" viewBox="0 0 114 114" -  Маленький логотип -->
	<g id="outlined-logo">
		<defs/>
		<rect width="155.000000" height="155.000000" fill="#FFFFFF" fill-opacity="0"/>
		<mask fill="white">
			<path id="Union" d="M0 38.75L0 37.75L-1 37.75L-1 38.75L0 38.75ZM77.5 38.75L78.5 38.75L78.5 37.75L77.5 37.75L77.5 38.75ZM77.5 77.5L77.5 78.5L78.5 78.5L78.5 77.5L77.5 77.5ZM38.75 77.5L38.75 76.5L37.75 76.5L37.75 77.5L38.75 77.5ZM38.75 116.25L37.75 116.25L37.75 117.25L38.75 117.25L38.75 116.25ZM77.5 116.25L78.5 116.25L78.5 115.25L77.5 115.25L77.5 116.25ZM77.5 155L77.5 156L78.5 156L78.5 155L77.5 155ZM0 155L-1 155L-1 156L0 156L0 155ZM38.75 37.75L0 37.75L0 39.75L38.75 39.75L38.75 37.75ZM77.5 37.75L38.75 37.75L38.75 39.75L77.5 39.75L77.5 37.75ZM78.5 77.5L78.5 38.75L76.5 38.75L76.5 77.5L78.5 77.5ZM38.75 78.5L77.5 78.5L77.5 76.5L38.75 76.5L38.75 78.5ZM39.75 116.25L39.75 77.5L37.75 77.5L37.75 116.25L39.75 116.25ZM38.75 117.25L77.5 117.25L77.5 115.25L38.75 115.25L38.75 117.25ZM76.5 116.25L76.5 155L78.5 155L78.5 116.25L76.5 116.25ZM77.5 154L38.75 154L38.75 156L77.5 156L77.5 154ZM0 156L38.75 156L38.75 154L0 154L0 156ZM-1 116.25L-1 155L1 155L1 116.25L-1 116.25ZM-1 77.5L-1 116.25L1 116.25L1 77.5L-1 77.5ZM-1 38.75L-1 77.5L1 77.5L1 38.75L-1 38.75Z" fill="" fill-opacity="1.000000" fill-rule="nonzero"/>
		</mask>
		<path  d="" fill="#C778DD" fill-opacity="1.000000" fill-rule="nonzero"/>
		<mask  fill="white">
			<path id="Union" d="M77.5 0L77.5 -1L76.5 -1L76.5 0L77.5 0ZM155 0L156 0L156 -1L155 -1L155 0ZM155 116.25L155 117.25L156 117.25L156 116.25L155 116.25ZM77.5 116.25L76.5 116.25L76.5 117.25L77.5 117.25L77.5 116.25ZM77.5 77.5L77.5 76.5L76.5 76.5L76.5 77.5L77.5 77.5ZM116.25 77.5L116.25 78.5L117.25 78.5L117.25 77.5L116.25 77.5ZM116.25 38.75L117.25 38.75L117.25 37.75L116.25 37.75L116.25 38.75ZM77.5 38.75L76.5 38.75L76.5 39.75L77.5 39.75L77.5 38.75ZM116.25 -1L77.5 -1L77.5 1L116.25 1L116.25 -1ZM155 -1L116.25 -1L116.25 1L155 1L155 -1ZM156 38.75L156 0L154 0L154 38.75L156 38.75ZM156 77.5L156 38.75L154 38.75L154 77.5L156 77.5ZM156 116.25L156 77.5L154 77.5L154 116.25L156 116.25ZM116.25 117.25L155 117.25L155 115.25L116.25 115.25L116.25 117.25ZM116.25 115.25L77.5 115.25L77.5 117.25L116.25 117.25L116.25 115.25ZM78.5 116.25L78.5 77.5L76.5 77.5L76.5 116.25L78.5 116.25ZM77.5 78.5L116.25 78.5L116.25 76.5L77.5 76.5L77.5 78.5ZM115.25 38.75L115.25 77.5L117.25 77.5L117.25 38.75L115.25 38.75ZM77.5 39.75L116.25 39.75L116.25 37.75L77.5 37.75L77.5 39.75ZM76.5 0L76.5 38.75L78.5 38.75L78.5 0L76.5 0Z" fill="" fill-opacity="1.000000" fill-rule="nonzero"/>
		</mask>
		<path d="" fill="#C778DD" fill-opacity="1.000000" fill-rule="nonzero"/>
	</g>

	<!-- width="25" height="20" viewBox="0 0 25 20" -->
	<path id="quote" d="M10.5601 15.616C10.5601 17.0453 10.0374 18.2507 8.99194 19.232C7.96802 20.2133 6.71997 20.704 5.24805 20.704C3.73328 20.704 2.47461 20.2133 1.47205 19.232C0.490723 18.2507 0 17.0453 0 15.616C0 14.9333 0.0959473 14.208 0.287964 13.44C0.47998 12.672 0.864014 11.68 1.43994 10.464L6.40002 0L11.2 0L8.54395 11.584C9.14136 12.0107 9.62134 12.576 9.98401 13.28C10.368 13.9627 10.5601 14.7413 10.5601 15.616ZM24.8 15.616C24.8 17.0453 24.2773 18.2507 23.2321 19.232C22.1866 20.2133 20.9387 20.704 19.488 20.704C18.016 20.704 16.7679 20.2133 15.744 19.232C14.7413 18.2507 14.24 17.0453 14.24 15.616C14.24 14.9333 14.3361 14.208 14.528 13.44C14.72 12.672 15.1146 11.68 15.712 10.464L20.704 0L25.472 0L22.7841 11.584C23.4027 12.0107 23.8933 12.576 24.256 13.28C24.6187 13.9627 24.8 14.7413 24.8 15.616Z" fill="#ABB2BF" fill-opacity="1.000000" fill-rule="nonzero"/>
</svg>